<?xml version="1.0" encoding="UTF-8" standalone="no"?>
<!-- Created with Inkscape (http://www.inkscape.org/) -->

<svg
   xmlns:dc="http://purl.org/dc/elements/1.1/"
   xmlns:cc="http://creativecommons.org/ns#"
   xmlns:rdf="http://www.w3.org/1999/02/22-rdf-syntax-ns#"
   xmlns:svg="http://www.w3.org/2000/svg"
   xmlns="http://www.w3.org/2000/svg"
   xmlns:sodipodi="http://sodipodi.sourceforge.net/DTD/sodipodi-0.dtd"
   xmlns:inkscape="http://www.inkscape.org/namespaces/inkscape"
   enable-background="new"
   inkscape:export-ydpi="149.90031"
   inkscape:export-xdpi="149.90031"
   inkscape:export-filename="/home/mj/Desktop/it242.png"
   sodipodi:docname="it227_logo.svg"
   inkscape:version="0.91 r13725"
   version="1.1"
   id="svg2"
   viewBox="0 0 300 300"
   height="300"
   width="300">
  <sodipodi:namedview
     inkscape:snap-object-midpoints="true"
     inkscape:snap-bbox-edge-midpoints="true"
     inkscape:snap-bbox-midpoints="true"
     inkscape:snap-midpoints="true"
     inkscape:snap-page="true"
     inkscape:bbox-nodes="true"
     inkscape:bbox-paths="true"
     inkscape:snap-bbox="true"
     inkscape:snap-global="true"
     inkscape:window-maximized="1"
     inkscape:window-y="31"
     inkscape:window-x="0"
     inkscape:window-height="661"
     inkscape:window-width="1280"
     units="px"
     showgrid="false"
     inkscape:current-layer="layer1"
     inkscape:document-units="px"
     inkscape:cy="89.49961"
     inkscape:cx="534.27785"
     inkscape:zoom="0.63680265"
     inkscape:pageshadow="2"
     inkscape:pageopacity="0.0"
     borderopacity="1.0"
     bordercolor="#666666"
     pagecolor="#ffffff"
     id="base" />
  <defs
     id="defs4">
    <clipPath
       clipPathUnits="userSpaceOnUse"
       id="clipPath6169">
      <rect
         y="752.36218"
         x="0"
         height="300"
         width="300"
         id="rect6171"
         style="opacity:1;fill:#607d8b;fill-opacity:1;stroke:none;stroke-width:1;stroke-linecap:square;stroke-linejoin:miter;stroke-miterlimit:4;stroke-dasharray:none;stroke-dashoffset:0;stroke-opacity:1" />
    </clipPath>
  </defs>
  <metadata
     id="metadata7">
    <rdf:RDF>
      <cc:Work
         rdf:about="">
        <dc:format>image/svg+xml</dc:format>
        <dc:type
           rdf:resource="http://purl.org/dc/dcmitype/StillImage" />
        <dc:title></dc:title>
      </cc:Work>
    </rdf:RDF>
  </metadata>
  <g
     style=""
     transform="translate(0,-752.36216)"
     id="layer1"
     inkscape:groupmode="layer"
     inkscape:label="Layer 1">
    <rect
       y="752.36218"
       x="0"
       height="300"
       width="300"
       id="rect4206"
       style="opacity:1;fill:#4ab45a;fill-opacity:1;stroke:none;stroke-width:1;stroke-linecap:square;stroke-linejoin:miter;stroke-miterlimit:4;stroke-dasharray:none;stroke-dashoffset:0;stroke-opacity:1" />
    <path
       style="font-style:normal;font-variant:normal;font-weight:normal;font-stretch:normal;font-size:medium;line-height:125%;font-family:Roboto;-inkscape-font-specification:Roboto;text-align:center;letter-spacing:0px;word-spacing:0px;text-anchor:middle;opacity:0.3;fill:#000000;fill-opacity:1;stroke:none;stroke-width:1px;stroke-linecap:butt;stroke-linejoin:miter;stroke-opacity:1"
       d="m 48.814096,788.59149 c -0.403076,0 -0.795044,0.016 -1.173828,0.0449 -2.651493,0.20221 -4.706913,1.11073 -6.169922,2.73046 -1.6123,1.85113 -2.419922,4.1214 -2.419922,6.8086 0,2.68714 0.807622,4.92532 2.419922,6.71679 0.0598,0.064 0.11988,0.1277 0.18164,0.18946 l 30.003907,30.0039 0,1.60547 17.644531,17.64453 0,1.88086 -32.333985,-32.33398 -16.572265,0 0,96.91796 16.505859,16.50586 -14.277344,0 c -2.77,0 -5,2.23 -5,5 l 0,68.8262 c 0,2.77 2.23,5 5,5 l 207.130841,207.1328 c 0,2.77 2.23,5 5,5 l 60.10156,0 c 2.76999,0 5,-2.23 5,-5 l 0,-4.8281 8.36719,8.3672 c 0.90375,0.9037 2.15407,1.4609 3.53906,1.4609 l 60.10157,0 c 2.77,0 5,-2.23 5,-5 l 0,-7.5254 7.52539,7.5254 c 0,2.77 2.23,5 5,5 l 60.10156,0 c 2.77,0 5,-2.23 5,-5 l 0,-68.8261 c 0,-2.77 -2.23,-5 -5,-5 L 262.359,942.30633 c 0,-2.77 -2.23,-5 -5,-5 l -14.5957,0 -136.89063,-136.89257 -16.572246,0 0,23.46875 -0.613281,0 -32.798828,-32.79883 c -0.06116,-0.0612 -0.130305,-0.11296 -0.19336,-0.17187 -0.112271,-0.10489 -0.225487,-0.20891 -0.34375,-0.30664 -0.111919,-0.0925 -0.228419,-0.17953 -0.345703,-0.26563 -0.126721,-0.093 -0.253735,-0.18593 -0.386719,-0.27148 -0.12689,-0.0816 -0.259987,-0.15564 -0.392578,-0.23047 -0.127589,-0.072 -0.253851,-0.14523 -0.386719,-0.21094 -0.153853,-0.0761 -0.315632,-0.14328 -0.476562,-0.21094 -0.132477,-0.0557 -0.263119,-0.11408 -0.400391,-0.16406 -0.161202,-0.0587 -0.330232,-0.10739 -0.498047,-0.1582 -0.144568,-0.0438 -0.286071,-0.091 -0.435547,-0.12891 -0.184517,-0.0468 -0.378319,-0.0832 -0.570312,-0.12109 -0.143305,-0.0283 -0.282218,-0.0607 -0.429688,-0.084 -0.283765,-0.0449 -0.579725,-0.077 -0.878906,-0.10351 -0.05565,-0.005 -0.10788,-0.0152 -0.164062,-0.0195 -0.0038,-2.9e-4 -0.0079,2.8e-4 -0.01172,0 -0.375851,-0.0284 -0.760474,-0.0449 -1.160156,-0.0449 z"
       id="path5806"
       inkscape:connector-curvature="0"
       clip-path="url(#clipPath6169)" />
    <g
       transform="translate(-13.014116,18.229314)"
       id="g4268">
      <g
         transform="matrix(1.496447,0,0,1.496447,-102.70201,770.35621)"
         style="font-style:normal;font-weight:normal;font-size:122.58626556px;line-height:125%;font-family:sans-serif;letter-spacing:0px;word-spacing:0px;fill:#ffffff;fill-opacity:1;stroke:none;stroke-width:1px;stroke-linecap:butt;stroke-linejoin:miter;stroke-opacity:1"
         id="flowRoot4208-9">
        <path
           d="m 115.40074,88.352294 -11.07347,0 0,-64.764814 11.07347,0 0,64.764814 z M 103.42942,6.4086429 q 0,-2.6935459 1.61613,-4.5490997 1.67598,-1.85555383 4.90824,-1.85555383 3.23225,0 4.90824,1.85555383 1.67598,1.8555538 1.67598,4.5490997 0,2.6935459 -1.67598,4.4892431 -1.67599,1.795697 -4.90824,1.795697 -3.23226,0 -4.90824,-1.795697 -1.61613,-1.7956972 -1.61613,-4.4892431 z"
           style="font-style:normal;font-variant:normal;font-weight:normal;font-stretch:normal;font-size:122.58626556px;font-family:Roboto;-inkscape-font-specification:Roboto;text-align:center;text-anchor:middle;fill:#ffffff"
           id="path4427"
           inkscape:connector-curvature="0" />
        <path
           d="m 148.08243,7.9050573 0,15.6824227 12.09103,0 0,8.55949 -12.09103,0 0,40.163762 q 0,3.890677 1.61613,5.865944 1.61612,1.915411 5.5068,1.915411 1.91541,0 5.26738,-0.718279 l 0,8.978486 q -4.36953,1.197132 -8.49963,1.197132 -7.42222,0 -11.19318,-4.489244 -3.77097,-4.489243 -3.77097,-12.74945 l 0,-40.163762 -11.79174,0 0,-8.55949 11.79174,0 0,-15.6824227 11.07347,0 z"
           style="font-style:normal;font-variant:normal;font-weight:normal;font-stretch:normal;font-size:122.58626556px;font-family:Roboto;-inkscape-font-specification:Roboto;text-align:center;text-anchor:middle;fill:#ffffff"
           id="path4429"
           inkscape:connector-curvature="0" />
      </g>
    </g>
    <path
       style="opacity:1;fill:#ffffff;fill-opacity:1;stroke:none;stroke-width:1;stroke-linecap:square;stroke-linejoin:miter;stroke-miterlimit:4;stroke-dasharray:none;stroke-dashoffset:0;stroke-opacity:1"
       d="m 42.631951,937.30578 60.101929,0 c 2.77,0 5,2.23 5,5 l 0,68.82712 c 0,2.77 -2.23,5 -5,5 l -60.101929,0 c -2.77,0 -5,-2.23 -5,-5 l 0,-68.82712 c 0,-2.77 2.23,-5 5,-5 z"
       id="rect4302"
       inkscape:connector-curvature="0" />
    <g
       transform="matrix(0.69057311,0,0,0.69057311,23.256121,293.83327)"
       style="font-style:normal;font-weight:normal;font-size:126.9644165px;line-height:125%;font-family:sans-serif;letter-spacing:0px;word-spacing:0px;fill:#3f51b5;fill-opacity:1;stroke:none;stroke-width:1px;stroke-linecap:butt;stroke-linejoin:miter;stroke-opacity:1"
       id="flowRoot4304">
      <path
         d="m 102.78774,1034.6204 -60.692466,0 0,-10.3531 30.067257,-32.79498 q 6.509406,-7.25334 9.237157,-12.08889 2.789746,-4.89756 2.789746,-9.79511 0,-6.44741 -3.657667,-10.41505 -3.595672,-3.96764 -9.733112,-3.96764 -7.315332,0 -11.344965,4.46359 -4.029632,4.4636 -4.029632,12.21289 l -15.064626,0 q 0,-8.24525 3.719661,-14.81665 3.781655,-6.63339 10.725022,-10.29106 7.005361,-3.65767 16.118529,-3.65767 13.142801,0 20.706111,6.6334 7.625304,6.5714 7.625304,18.22634 0,6.75738 -3.843649,14.1967 -3.781655,7.37733 -12.460863,16.80047 l -22.069987,23.61986 41.90818,0 0,12.0269 z"
         style="font-style:normal;font-variant:normal;font-weight:500;font-stretch:normal;font-family:Roboto;-inkscape-font-specification:'Roboto Medium';fill:#4ab45a;fill-opacity:1"
         id="path4433"
         inkscape:connector-curvature="0" />
    </g>
    <path
       style="opacity:1;fill:#ffffff;fill-opacity:1;stroke:none;stroke-width:1;stroke-linecap:square;stroke-linejoin:miter;stroke-miterlimit:4;stroke-dasharray:none;stroke-dashoffset:0;stroke-opacity:1"
       d="m 119.63961,937.30578 60.10193,0 c 2.77,0 5,2.23 5,5 l 0,68.82712 c 0,2.77 -2.23,5 -5,5 l -60.10193,0 c -2.77,0 -5,-2.23 -5,-5 l 0,-68.82712 c 0,-2.77 2.23,-5 5,-5 z"
       id="rect4302-5"
       inkscape:connector-curvature="0" />
    <path
       style="opacity:1;fill:#ffffff;fill-opacity:1;stroke:none;stroke-width:1;stroke-linecap:square;stroke-linejoin:miter;stroke-miterlimit:4;stroke-dasharray:none;stroke-dashoffset:0;stroke-opacity:1"
       d="m 197.26612,937.30578 60.10193,0 c 2.77,0 5,2.23 5,5 l 0,68.82712 c 0,2.77 -2.23,5 -5,5 l -60.10193,0 c -2.77,0 -5,-2.23 -5,-5 l 0,-68.82712 c 0,-2.77 2.23,-5 5,-5 z"
       id="rect4302-5-0"
       inkscape:connector-curvature="0" />
    <g
       transform="matrix(0.69057311,0,0,0.69057311,177.89029,293.8333)"
       style="font-style:normal;font-weight:normal;font-size:126.9644165px;line-height:125%;font-family:sans-serif;letter-spacing:0px;word-spacing:0px;fill:#3f51b5;fill-opacity:1;stroke:none;stroke-width:1px;stroke-linecap:butt;stroke-linejoin:miter;stroke-opacity:1"
       id="flowRoot4304-3">
      <flowRoot
         xml:space="preserve"
         id="flowRoot3292"
         style="font-style:normal;font-weight:normal;font-size:57.92290497px;line-height:224.00000095%;font-family:sans-serif;letter-spacing:17.04381561px;word-spacing:0px;fill:#4ab45a;fill-opacity:1;stroke:none;stroke-width:1px;stroke-linecap:butt;stroke-linejoin:miter;stroke-opacity:1;"
         transform="matrix(2.2159898,0,0,2.2159898,187.27864,-1146.8194)"><flowRegion
           id="flowRegion3294"><rect
             id="rect3296"
             width="180.08954"
             height="179.28558"
             x="-68.603661"
             y="882.57343"
             style="fill:#4ab45a;fill-opacity:1;" /></flowRegion><flowPara
           id="flowPara3298"
           style="font-style:normal;font-variant:normal;font-weight:bold;font-stretch:normal;font-family:'Open Sans';-inkscape-font-specification:'Open Sans Bold';fill:#4ab45a;fill-opacity:1;">7</flowPara></flowRoot>    </g>
    <g
       id="g3288"
       style="font-style:normal;font-weight:normal;font-size:126.9644165px;line-height:125%;font-family:sans-serif;letter-spacing:0px;word-spacing:0px;fill:#3f51b5;fill-opacity:1;stroke:none;stroke-width:1px;stroke-linecap:butt;stroke-linejoin:miter;stroke-opacity:1"
       transform="matrix(0.69057311,0,0,0.69057311,102.64985,293.83327)">
      <path
         inkscape:connector-curvature="0"
         id="path3290"
         style="font-style:normal;font-variant:normal;font-weight:500;font-stretch:normal;font-family:Roboto;-inkscape-font-specification:'Roboto Medium';fill:#4ab45a;fill-opacity:1"
         d="m 102.78774,1034.6204 -60.692466,0 0,-10.3531 30.067257,-32.79498 q 6.509406,-7.25334 9.237157,-12.08889 2.789746,-4.89756 2.789746,-9.79511 0,-6.44741 -3.657667,-10.41505 -3.595672,-3.96764 -9.733112,-3.96764 -7.315332,0 -11.344965,4.46359 -4.029632,4.4636 -4.029632,12.21289 l -15.064626,0 q 0,-8.24525 3.719661,-14.81665 3.781655,-6.63339 10.725022,-10.29106 7.005361,-3.65767 16.118529,-3.65767 13.142801,0 20.706111,6.6334 7.625304,6.5714 7.625304,18.22634 0,6.75738 -3.843649,14.1967 -3.781655,7.37733 -12.460863,16.80047 l -22.069987,23.61986 41.90818,0 0,12.0269 z" />
    </g>
  </g>
</svg>
