<?xml version="1.0" encoding="UTF-8" standalone="no"?>
<!-- Created with Inkscape (http://www.inkscape.org/) -->

<svg
   xmlns:dc="http://purl.org/dc/elements/1.1/"
   xmlns:cc="http://creativecommons.org/ns#"
   xmlns:rdf="http://www.w3.org/1999/02/22-rdf-syntax-ns#"
   xmlns:svg="http://www.w3.org/2000/svg"
   xmlns="http://www.w3.org/2000/svg"
   xmlns:sodipodi="http://sodipodi.sourceforge.net/DTD/sodipodi-0.dtd"
   xmlns:inkscape="http://www.inkscape.org/namespaces/inkscape"
   width="300"
   height="300"
   viewBox="0 0 300 300"
   id="svg2"
   version="1.1"
   inkscape:version="0.91 r13725"
   sodipodi:docname="it227_logo.svg"
   inkscape:export-filename="/home/mj/Desktop/it227.png"
   inkscape:export-xdpi="149.90031"
   inkscape:export-ydpi="149.90031">
  <defs
     id="defs4" />
  <sodipodi:namedview
     id="base"
     pagecolor="#ffffff"
     bordercolor="#666666"
     borderopacity="1.0"
     inkscape:pageopacity="0.0"
     inkscape:pageshadow="2"
     inkscape:zoom="0.98994949"
     inkscape:cx="111.46594"
     inkscape:cy="96.163643"
     inkscape:document-units="px"
     inkscape:current-layer="layer1"
     showgrid="false"
     units="px"
     inkscape:window-width="1366"
     inkscape:window-height="713"
     inkscape:window-x="0"
     inkscape:window-y="31"
     inkscape:window-maximized="1"
     inkscape:snap-global="true"
     inkscape:snap-bbox="true"
     inkscape:bbox-paths="true"
     inkscape:bbox-nodes="true"
     inkscape:snap-page="true"
     inkscape:snap-midpoints="true"
     inkscape:snap-bbox-midpoints="true"
     inkscape:snap-bbox-edge-midpoints="true"
     inkscape:snap-object-midpoints="true" />
  <metadata
     id="metadata7">
    <rdf:RDF>
      <cc:Work
         rdf:about="">
        <dc:format>image/svg+xml</dc:format>
        <dc:type
           rdf:resource="http://purl.org/dc/dcmitype/StillImage" />
        <dc:title></dc:title>
      </cc:Work>
    </rdf:RDF>
  </metadata>
  <g
     inkscape:label="Layer 1"
     inkscape:groupmode="layer"
     id="layer1"
     transform="translate(0,-752.36216)">
    <rect
       style="opacity:1;fill:#4ab45a;fill-opacity:1;stroke:none;stroke-width:1;stroke-linecap:square;stroke-linejoin:miter;stroke-miterlimit:4;stroke-dasharray:none;stroke-dashoffset:0;stroke-opacity:1"
       id="rect4206"
       width="300"
       height="300"
       x="0"
       y="752.36218" />
    <g
       id="g4366"
       transform="translate(-2.2998295,1.832062)">
      <g
         transform="translate(-10.714285,16.39728)"
         id="g4268">
        <g
           transform="matrix(1.496447,0,0,1.496447,-102.70201,770.35621)"
           style="font-style:normal;font-weight:normal;font-size:122.58626556px;line-height:125%;font-family:sans-serif;letter-spacing:0px;word-spacing:0px;fill:#ffffff;fill-opacity:1;stroke:none;stroke-width:1px;stroke-linecap:butt;stroke-linejoin:miter;stroke-opacity:1"
           id="flowRoot4208-9">
          <path
             d="m 115.40074,88.352294 -11.07347,0 0,-64.764814 11.07347,0 0,64.764814 z M 103.42942,6.4086429 q 0,-2.6935459 1.61613,-4.5490997 1.67598,-1.85555383 4.90824,-1.85555383 3.23225,0 4.90824,1.85555383 1.67598,1.8555538 1.67598,4.5490997 0,2.6935459 -1.67598,4.4892431 -1.67599,1.795697 -4.90824,1.795697 -3.23226,0 -4.90824,-1.795697 -1.61613,-1.7956972 -1.61613,-4.4892431 z"
             style="font-style:normal;font-variant:normal;font-weight:normal;font-stretch:normal;font-size:122.58626556px;font-family:Roboto;-inkscape-font-specification:Roboto;text-align:center;text-anchor:middle;fill:#ffffff"
             id="path4427" />
          <path
             d="m 148.08243,7.9050573 0,15.6824227 12.09103,0 0,8.55949 -12.09103,0 0,40.163762 q 0,3.890677 1.61613,5.865944 1.61612,1.915411 5.5068,1.915411 1.91541,0 5.26738,-0.718279 l 0,8.978486 q -4.36953,1.197132 -8.49963,1.197132 -7.42222,0 -11.19318,-4.489244 -3.77097,-4.489243 -3.77097,-12.74945 l 0,-40.163762 -11.79174,0 0,-8.55949 11.79174,0 0,-15.6824227 11.07347,0 z"
             style="font-style:normal;font-variant:normal;font-weight:normal;font-stretch:normal;font-size:122.58626556px;font-family:Roboto;-inkscape-font-specification:Roboto;text-align:center;text-anchor:middle;fill:#ffffff"
             id="path4429" />
        </g>
      </g>
      <path
         style="opacity:1;fill:#ffffff;fill-opacity:1;stroke:none;stroke-width:1;stroke-linecap:square;stroke-linejoin:miter;stroke-miterlimit:4;stroke-dasharray:none;stroke-dashoffset:0;stroke-opacity:1"
         d="m 44.931782,935.47375 60.101928,0 c 2.77,0 5,2.23 5,5 l 0,68.82705 c 0,2.77 -2.23,5 -5,5 l -60.101928,0 c -2.77,0 -5,-2.23 -5,-5 l 0,-68.82705 c 0,-2.77 2.23,-5 5,-5 z"
         id="rect4302" />
      <g
         transform="matrix(0.69057311,0,0,0.69057311,25.555952,292.00124)"
         style="font-style:normal;font-weight:normal;font-size:126.9644165px;line-height:125%;font-family:sans-serif;letter-spacing:0px;word-spacing:0px;fill:#4ab45a;fill-opacity:1;stroke:none;stroke-width:1px;stroke-linecap:butt;stroke-linejoin:miter;stroke-opacity:1"
         id="flowRoot4304">
        <path
           d="m 102.78774,1034.6204 -60.692466,0 0,-10.3531 30.067257,-32.79498 q 6.509406,-7.25334 9.237157,-12.08889 2.789746,-4.89756 2.789746,-9.79511 0,-6.44741 -3.657667,-10.41505 -3.595672,-3.96764 -9.733112,-3.96764 -7.315332,0 -11.344965,4.46359 -4.029632,4.4636 -4.029632,12.21289 l -15.064626,0 q 0,-8.24525 3.719661,-14.81665 3.781655,-6.63339 10.725022,-10.29106 7.005361,-3.65767 16.118529,-3.65767 13.142801,0 20.706111,6.6334 7.625304,6.5714 7.625304,18.22634 0,6.75738 -3.843649,14.1967 -3.781655,7.37733 -12.460863,16.80047 l -22.069987,23.61986 41.90818,0 0,12.0269 z"
           style="font-style:normal;font-variant:normal;font-weight:500;font-stretch:normal;font-family:Roboto;-inkscape-font-specification:'Roboto Medium';fill:#4ab45a;fill-opacity:1"
           id="path4433" />
      </g>
      <path
         style="opacity:1;fill:#ffffff;fill-opacity:1;stroke:none;stroke-width:1;stroke-linecap:square;stroke-linejoin:miter;stroke-miterlimit:4;stroke-dasharray:none;stroke-dashoffset:0;stroke-opacity:1"
         d="m 121.93944,935.47375 60.10193,0 c 2.77,0 5,2.23 5,5 l 0,68.82705 c 0,2.77 -2.23,5 -5,5 l -60.10193,0 c -2.77,0 -5,-2.23 -5,-5 l 0,-68.82705 c 0,-2.77 2.23,-5 5,-5 z"
         id="rect4302-5" />
      <g
         transform="matrix(0.69057311,0,0,0.69057311,102.56361,292.00124)"
         style="font-style:normal;font-weight:normal;font-size:126.9644165px;line-height:125%;font-family:sans-serif;letter-spacing:0px;word-spacing:0px;fill:#4ab45a;fill-opacity:1;stroke:none;stroke-width:1px;stroke-linecap:butt;stroke-linejoin:miter;stroke-opacity:1"
         id="flowRoot4304-5">
        <path
           d="m 102.78774,1034.6204 -60.692466,0 0,-10.3531 30.067257,-32.79498 q 6.509406,-7.25334 9.237157,-12.08889 2.789746,-4.89756 2.789746,-9.79511 0,-6.44741 -3.657667,-10.41505 -3.595672,-3.96764 -9.733112,-3.96764 -7.315332,0 -11.344965,4.46359 -4.029632,4.4636 -4.029632,12.21289 l -15.064626,0 q 0,-8.24525 3.719661,-14.81665 3.781655,-6.63339 10.725022,-10.29106 7.005361,-3.65767 16.118529,-3.65767 13.142801,0 20.706111,6.6334 7.625304,6.5714 7.625304,18.22634 0,6.75738 -3.843649,14.1967 -3.781655,7.37733 -12.460863,16.80047 l -22.069987,23.61986 41.90818,0 0,12.0269 z"
           style="font-style:normal;font-variant:normal;font-weight:500;font-stretch:normal;font-family:Roboto;-inkscape-font-specification:'Roboto Medium';fill:#4ab45a;fill-opacity:1"
           id="path4437" />
      </g>
      <path
         style="opacity:1;fill:#ffffff;fill-opacity:1;stroke:none;stroke-width:1;stroke-linecap:square;stroke-linejoin:miter;stroke-miterlimit:4;stroke-dasharray:none;stroke-dashoffset:0;stroke-opacity:1"
         d="m 199.56595,935.47375 60.10193,0 c 2.77,0 5,2.23 5,5 l 0,68.82705 c 0,2.77 -2.23,5 -5,5 l -60.10193,0 c -2.77,0 -5,-2.23 -5,-5 l 0,-68.82705 c 0,-2.77 2.23,-5 5,-5 z"
         id="rect4302-5-0" />
      <g
         transform="matrix(0.69057311,0,0,0.69057311,180.66103,291.57312)"
         style="font-style:normal;font-weight:normal;font-size:126.9644165px;line-height:125%;font-family:sans-serif;letter-spacing:0px;word-spacing:0px;fill:#4ab45a;fill-opacity:1;stroke:none;stroke-width:1px;stroke-linecap:butt;stroke-linejoin:miter;stroke-opacity:1"
         id="flowRoot4304-5-4">
        <path
           d="m 102.16779,952.72586 -36.080705,81.89454 -15.808557,0 36.018713,-78.17488 -46.681741,0 0,-12.0889 62.55229,0 0,8.36924 z"
           style="font-style:normal;font-variant:normal;font-weight:500;font-stretch:normal;font-family:Roboto;-inkscape-font-specification:'Roboto Medium';fill:#4ab45a;fill-opacity:1"
           id="path4441" />
      </g>
    </g>
  </g>
</svg>
